<svg width="70" height="67" viewBox="0 0 70 67" fill="none" xmlns="http://www.w3.org/2000/svg">
<path d="M50.2701 0.398954C44.1917 0.481571 38.019 3.64432 34.0332 10.5477C27.8937 -6.70378 -0.609199 -0.627609 0.0488086 19.9959C0.734648 41.4701 31.4672 53.9862 34.7748 66.3308C37.8021 55.035 70.0412 40.576 69.3955 19.9959C69.0074 7.6388 59.7522 0.270341 50.27 0.399247L50.2701 0.398954ZM27.7071 8.99129C29.96 12.2586 31.7893 16.2502 28.3067 16.5262C24.9082 16.7957 26.2295 12.3244 27.7068 8.99129H27.7071ZM41.9433 8.99129C43.4209 12.3244 44.7465 16.796 41.3483 16.5262C37.8655 16.2502 39.6903 12.2586 41.9433 8.99129ZM53.5569 17.3318C54.0916 20.9383 54.1736 25.5979 50.9706 24.4319C47.6876 23.236 50.514 19.8795 53.5569 17.3318ZM14.8805 18.1512C18.1609 20.3866 21.3028 23.4496 18.1534 24.9628C15.0807 26.4385 14.7033 21.7923 14.8804 18.1512H14.8805ZM29.4235 18.2427C31.3011 18.2646 33.0372 20.3046 33.4015 23.0217C33.79 25.9198 32.4705 28.4914 30.4535 28.7618C28.4365 29.0323 26.4841 26.8993 26.0956 24.0011C25.7072 21.1029 27.0314 18.5358 29.0482 18.2654C29.1727 18.2487 29.2982 18.241 29.4238 18.2425L29.4235 18.2427ZM40.2314 18.2427C40.3565 18.2412 40.4807 18.2485 40.6068 18.2655C42.6236 18.5359 43.9431 21.1029 43.5548 24.0012C43.1663 26.8994 41.2184 29.0324 39.2013 28.762C37.1845 28.4917 35.865 25.9199 36.2534 23.0217C36.6175 20.3044 38.3537 18.2643 40.2312 18.2425L40.2314 18.2427ZM20.6574 26.2813C22.4404 26.2757 24.3594 27.8862 25.2673 30.3184C26.3429 33.2012 25.5887 36.148 23.5827 36.8966C21.5763 37.6451 19.0783 35.9158 18.0024 33.033C16.9266 30.1502 17.6808 27.2037 19.6869 26.455C19.9975 26.3399 20.3262 26.281 20.6574 26.2811V26.2813ZM48.6954 26.3589C48.9585 26.3516 49.2194 26.3821 49.4782 26.4505C51.5483 26.9979 52.5904 29.8524 51.8036 32.8269C51.017 35.802 48.7011 37.7693 46.6308 37.2215C44.5607 36.6742 43.5188 33.8197 44.3054 30.845C44.9939 28.242 46.8545 26.4095 48.6955 26.3589H48.6954ZM34.816 30.5109C37.4996 30.5109 39.7414 33.4271 40.3184 37.3362C40.407 37.36 40.4948 37.3835 40.5835 37.4094C45.5879 38.8634 48.9686 42.7854 48.1323 46.1709C47.2959 49.5562 42.5619 51.1224 37.5579 49.6682C36.5838 49.3851 35.6706 49.0085 34.8387 48.5604C33.9754 49.0241 33.0656 49.3955 32.1243 49.6682C27.1201 51.1224 22.3864 49.5563 21.5499 46.1709C20.7135 42.7857 24.0897 38.8634 29.0939 37.4093C29.1645 37.3887 29.2339 37.3691 29.3044 37.3498C29.8782 33.434 32.1293 30.511 34.816 30.511V30.5109Z" fill="#FF8A00"/>
</svg>
