<svg width="19" height="18" viewBox="0 0 19 18" fill="none" xmlns="http://www.w3.org/2000/svg">
<path fill-rule="evenodd" clip-rule="evenodd" d="M13.4831 17.4715C12.2231 17.4251 8.65225 16.9316 4.9125 13.1928C1.17362 9.45301 0.680997 5.88301 0.633747 4.62214C0.563747 2.70064 2.0355 0.834264 3.73562 0.105389C3.94035 0.0169846 4.16455 -0.0166735 4.38621 0.00771715C4.60787 0.0321078 4.81939 0.113709 5 0.244514C6.4 1.26476 7.366 2.80826 8.1955 4.02189C8.37801 4.28853 8.45604 4.61299 8.41473 4.93346C8.37343 5.25393 8.21566 5.548 7.9715 5.75964L6.26437 7.02751C6.1819 7.08707 6.12384 7.17454 6.10099 7.27367C6.07814 7.3728 6.09204 7.47686 6.14012 7.56651C6.52687 8.26914 7.21462 9.31564 8.00212 10.1031C8.7905 10.8906 9.886 11.6239 10.6376 12.0544C10.7319 12.1073 10.8428 12.1221 10.9476 12.0957C11.0524 12.0694 11.1431 12.0038 11.2011 11.9126L12.3124 10.2213C12.5167 9.94988 12.8181 9.76807 13.1534 9.71392C13.4887 9.65977 13.832 9.73748 14.1114 9.93076C15.3425 10.783 16.7792 11.7324 17.831 13.079C17.9724 13.2609 18.0624 13.4775 18.0915 13.7061C18.1206 13.9347 18.0877 14.1668 17.9964 14.3784C17.264 16.0873 15.4107 17.5424 13.4831 17.4715Z" fill="#F7F8F2"/>
</svg>
