<svg width="38" height="38" viewBox="0 0 38 38" fill="none" xmlns="http://www.w3.org/2000/svg">
<path fill-rule="evenodd" clip-rule="evenodd" d="M27.6401 0.953282C21.9497 -0.317761 16.0486 -0.317761 10.3582 0.953282L9.74502 1.08883C8.14436 1.44643 6.67425 2.24042 5.49799 3.3826C4.32173 4.52479 3.48537 5.97045 3.08182 7.55899C1.63939 13.2385 1.63939 19.1881 3.08182 24.8676C3.46667 26.3826 4.24554 27.769 5.33948 28.8862C6.43343 30.0034 7.80354 30.8118 9.31093 31.2293L10.152 36.2464C10.1788 36.4057 10.2479 36.5549 10.3521 36.6785C10.4562 36.8021 10.5916 36.8955 10.7442 36.949C10.8967 37.0025 11.0608 37.0142 11.2194 36.9828C11.378 36.9514 11.5253 36.8781 11.6459 36.7705L16.5855 32.3553C20.2934 32.5814 24.0148 32.2851 27.6401 31.4751L28.2551 31.3396C29.8558 30.982 31.3259 30.188 32.5021 29.0458C33.6784 27.9036 34.5147 26.4579 34.9183 24.8694C36.3606 19.1899 36.3606 13.2403 34.9183 7.5608C34.5146 5.97203 33.678 4.52621 32.5014 3.384C31.3248 2.2418 29.8543 1.44794 28.2533 1.09064L27.6401 0.953282ZM11.8847 7.4126C11.5485 7.36371 11.2058 7.43132 10.9134 7.60418H10.8881C10.2099 8.00179 9.59851 8.50241 9.07761 9.09159C8.64353 9.59222 8.4084 10.0983 8.3469 10.5862C8.31073 10.8754 8.33605 11.1682 8.42106 11.4447L8.45362 11.4628C8.94196 12.896 9.57862 14.275 10.3564 15.5726C11.3592 17.3953 12.5933 19.0809 14.028 20.5879L14.0714 20.6493L14.1401 20.6999L14.1817 20.7487L14.2324 20.7921C15.7457 22.2301 17.4367 23.4691 19.2641 24.479C21.3532 25.6158 22.621 26.1526 23.3825 26.3767V26.3875C23.605 26.4562 23.8075 26.4869 24.0119 26.4869C24.6604 26.4391 25.2742 26.1756 25.7555 25.7387C26.3433 25.2182 26.8407 24.6055 27.2278 23.9242V23.9115C27.5913 23.2247 27.4683 22.5777 26.9438 22.1386C25.8902 21.2187 24.751 20.4017 23.5417 19.6987C22.7314 19.2595 21.9084 19.5252 21.5756 19.9698L20.8648 20.8662C20.4995 21.3108 19.8375 21.2494 19.8375 21.2494L19.8194 21.2602C14.8799 20.0005 13.5613 15.0033 13.5613 15.0033C13.5613 15.0033 13.4998 14.3237 13.9574 13.9767L14.8473 13.2611C15.2742 12.914 15.5708 12.0935 15.1132 11.2839C14.4143 10.0743 13.5983 8.9363 12.6769 7.88612C12.4759 7.63896 12.1941 7.47063 11.8811 7.4108L11.8847 7.4126ZM20.23 5.24022C19.9901 5.24022 19.7601 5.33542 19.5905 5.50489C19.4209 5.67436 19.3256 5.90421 19.3256 6.14387C19.3256 6.38354 19.4209 6.61338 19.5905 6.78285C19.7601 6.95232 19.9901 7.04753 20.23 7.04753C22.5179 7.04753 24.4171 7.79394 25.9201 9.22533C26.6924 10.0079 27.2947 10.935 27.689 11.9508C28.0851 12.9683 28.2659 14.0545 28.2189 15.1425C28.2139 15.2611 28.2324 15.3796 28.2732 15.4912C28.3141 15.6027 28.3765 15.7051 28.4569 15.7926C28.6194 15.9691 28.8454 16.074 29.0853 16.0841C29.3251 16.0941 29.5592 16.0086 29.7359 15.8462C29.9126 15.6839 30.0175 15.458 30.0276 15.2184C30.0837 13.88 29.8614 12.5446 29.3747 11.2965C28.8859 10.0425 28.1447 8.90204 27.197 7.94576L27.1789 7.92769C25.3142 6.14749 22.9538 5.24022 20.23 5.24022ZM20.1685 8.21143C19.9286 8.21143 19.6986 8.30664 19.529 8.47611C19.3594 8.64558 19.2641 8.87542 19.2641 9.11509C19.2641 9.35475 19.3594 9.5846 19.529 9.75407C19.6986 9.92354 19.9286 10.0187 20.1685 10.0187H20.1992C21.8487 10.1362 23.0497 10.6856 23.8907 11.5875C24.7535 12.5164 25.2002 13.6713 25.1659 15.0991C25.1603 15.3387 25.2503 15.5708 25.416 15.7442C25.5817 15.9175 25.8096 16.018 26.0494 16.0235C26.2893 16.029 26.5215 15.9391 26.695 15.7735C26.8685 15.608 26.969 15.3803 26.9745 15.1407C27.018 13.2665 26.4139 11.6489 25.2165 10.3585V10.3549C23.992 9.04279 22.3118 8.34879 20.2897 8.21324L20.2589 8.20963L20.1685 8.21143ZM20.1341 11.2387C20.0131 11.228 19.8911 11.2418 19.7756 11.2793C19.66 11.3167 19.5532 11.3771 19.4615 11.4567C19.3698 11.5363 19.295 11.6336 19.2418 11.7427C19.1885 11.8518 19.1578 11.9706 19.1515 12.0918C19.1452 12.2131 19.1634 12.3343 19.205 12.4484C19.2466 12.5624 19.3108 12.6669 19.3937 12.7557C19.4767 12.8444 19.5766 12.9155 19.6877 12.9648C19.7987 13.014 19.9186 13.0404 20.0401 13.0424C20.7961 13.0821 21.279 13.3099 21.5829 13.6153C21.8885 13.9225 22.1164 14.4159 22.158 15.1876C22.1603 15.3089 22.1869 15.4285 22.2364 15.5392C22.2859 15.65 22.3572 15.7497 22.4461 15.8323C22.5349 15.9149 22.6395 15.9789 22.7536 16.0202C22.8677 16.0616 22.989 16.0797 23.1102 16.0732C23.2314 16.0668 23.3501 16.036 23.4591 15.9828C23.5682 15.9296 23.6654 15.8549 23.745 15.7634C23.8246 15.6718 23.8849 15.5651 23.9224 15.4498C23.9599 15.3344 23.9737 15.2127 23.9631 15.0919C23.9052 14.0075 23.5652 13.0496 22.8688 12.3447C22.1689 11.6399 21.2157 11.2965 20.1341 11.2387Z" fill="#5634B6"/>
</svg>
