<svg width="38" height="38" viewBox="0 0 38 38" fill="none" xmlns="http://www.w3.org/2000/svg">
<g clip-path="url(#clip0_423_121)">
<path d="M4.01007 27.8331L3.91127 27.6611C2.38367 25.0144 1.57522 21.9906 1.57617 18.9164C1.57997 9.27199 9.42982 1.42499 19.0742 1.42499C23.7539 1.42689 28.1496 3.24804 31.4527 6.55404C34.7559 9.86004 36.5751 14.2557 36.5751 18.9306C36.5704 28.576 28.7205 36.4239 19.0761 36.4239C16.1482 36.422 13.2564 35.6867 10.7057 34.2959L10.5404 34.2047L1.62462 36.5417L4.01007 27.8331Z" fill="#F2FAFF"/>
<path d="M19.0743 1.90001C23.6257 1.90096 27.9026 3.67366 31.1165 6.89036C34.3303 10.1071 36.1002 14.383 36.1002 18.9307C36.0954 28.3148 28.4593 35.949 19.0695 35.949C16.2281 35.948 13.4151 35.2317 10.9337 33.878L10.6022 33.6975L10.2374 33.7934L2.3011 35.8739L4.4158 28.1495L4.5203 27.7666L4.3227 27.4237C2.835 24.8482 2.04935 21.9061 2.05125 18.9164C2.05505 9.53421 9.69209 1.90001 19.0743 1.90001ZM19.0743 0.950012C9.16864 0.950012 1.10505 9.01076 1.1003 18.9164C1.0984 22.0828 1.92585 25.175 3.49905 27.8987L0.950195 37.2106L10.4787 34.7121C13.1035 36.1437 16.0599 36.8971 19.0686 36.899H19.0762C28.9818 36.899 37.0454 28.8382 37.0502 18.9307C37.0502 14.1294 35.1825 9.61401 31.7891 6.21776C28.3957 2.82246 23.8832 0.951912 19.0743 0.950012Z" fill="#788B9C"/>
<path d="M18.9953 33.25C16.6165 33.249 14.2624 32.6496 12.1876 31.5181L10.8262 30.7753L9.32615 31.1685L6.2472 31.9761L7.0357 29.0975L7.46605 27.5243L6.65 26.1108C5.40645 23.9571 4.74905 21.4956 4.75 18.9933C4.7538 11.1397 11.1454 4.75095 18.9981 4.75C22.8086 4.75095 26.3882 6.23485 29.0776 8.92715C31.769 11.6195 33.25 15.199 33.25 19.0047C33.2462 26.8593 26.8546 33.25 18.9953 33.25Z" fill="#3BC24D"/>
<path d="M26.8664 22.5036C26.4389 22.2908 24.3394 21.2563 23.949 21.1147C23.5566 20.9713 23.2726 20.9019 22.9876 21.3275C22.7026 21.755 21.8846 22.7164 21.6357 23.0005C21.3868 23.2855 21.1379 23.3206 20.7104 23.1078C20.2829 22.895 18.9064 22.4428 17.2762 20.9884C16.006 19.8569 15.1491 18.4585 14.9002 18.031C14.6513 17.6035 14.8727 17.3727 15.0874 17.1599C15.2793 16.968 15.5149 16.6611 15.7277 16.4122C15.9405 16.1633 16.0127 15.9847 16.1552 15.6997C16.2986 15.4147 16.2264 15.1649 16.1191 14.9521C16.0117 14.7393 15.1577 12.6369 14.8014 11.7829C14.4556 10.9507 14.1022 11.0637 13.84 11.0504C13.5911 11.0371 13.3061 11.0362 13.0221 11.0362C12.7371 11.0362 12.2744 11.1435 11.884 11.571C11.4935 11.9985 10.3896 13.0312 10.3896 15.1326C10.3896 17.234 11.9201 19.2651 12.1329 19.5491C12.3457 19.8341 15.1434 24.1462 19.4289 25.9958C20.4473 26.4347 21.2443 26.6979 21.8628 26.8955C22.885 27.2204 23.8169 27.1748 24.5532 27.0646C25.374 26.942 27.0802 26.0319 27.4355 25.0354C27.7917 24.0388 27.7917 23.1829 27.6844 23.0062C27.5789 22.8238 27.2949 22.7164 26.8664 22.5036Z" fill="white"/>
</g>
<defs>
<clipPath id="clip0_423_121">
<rect width="38" height="38" fill="white"/>
</clipPath>
</defs>
</svg>
